<svg width="384" height="110" viewBox="0 0 384 110" fill="none" xmlns="http://www.w3.org/2000/svg">
  <path d="M23 72L36 50L49 72H23Z" fill="white"/>
  <path d="M53 72L66 50L79 72H53Z" fill="white"/>
  <path d="M87 52C87 46.4772 91.4772 42 97 42H140C145.523 42 150 46.4772 150 52C150 57.5228 145.523 62 140 62H115C112.239 62 110 64.2386 110 67C110 69.7614 112.239 72 115 72H146C151.523 72 156 76.4772 156 82C156 87.5228 151.523 92 146 92H98C92.4771 92 88 87.5228 88 82C88 76.4772 92.4771 72 98 72H126C128.761 72 131 69.7614 131 67C131 64.2386 128.761 62 126 62H97C91.4772 62 87 57.5228 87 52Z" fill="white"/>
  <path d="M162 52C162 46.4772 166.477 42 172 42H186C191.523 42 196 46.4772 196 52V76C196 82.6274 201.373 88 208 88H224C230.627 88 236 82.6274 236 76V52C236 46.4772 240.477 42 246 42H260C265.523 42 270 46.4772 270 52V77C270 94.1208 256.121 108 239 108H193C175.879 108 162 94.1208 162 77V52Z" fill="white"/>
  <path d="M276 52C276 35.4315 289.431 22 306 22H324C340.569 22 354 35.4315 354 52V100C354 105.523 349.523 110 344 110C338.477 110 334 105.523 334 100V52C334 46.4772 329.523 42 324 42H306C300.477 42 296 46.4772 296 52V76C296 81.5228 291.523 86 286 86C280.477 86 276 81.5228 276 76V52Z" fill="white"/>
  <circle cx="343.5" cy="13.5" r="9.5" fill="white"/>
  <circle cx="66" cy="80" r="5" fill="white"/>
  <path d="M66 77L78 96H54L66 77Z" fill="white"/>
</svg>
